<mxfile host="app.diagrams.net" modified="2023-06-12T19:10:07.833Z" agent="Mozilla/5.0 (Windows NT 10.0; Win64; x64) AppleWebKit/537.36 (KHTML, like Gecko) Chrome/114.0.0.0 Safari/537.36" etag="SYEvWy20LkOcBLqYGR5F" version="21.3.8" type="device">
  <diagram name="Page-1" id="2YBvvXClWsGukQMizWep">
    <mxGraphModel dx="1434" dy="764" grid="1" gridSize="10" guides="1" tooltips="1" connect="1" arrows="1" fold="1" page="1" pageScale="1" pageWidth="850" pageHeight="1100" math="0" shadow="0">
      <root>
        <mxCell id="0" />
        <mxCell id="1" parent="0" />
        <mxCell id="RWMHDLl-0bY4PuVm7Ei--52" value="WebContext" style="shape=umlLifeline;perimeter=lifelinePerimeter;whiteSpace=wrap;html=1;container=0;dropTarget=0;collapsible=0;recursiveResize=0;outlineConnect=0;portConstraint=eastwest;newEdgeStyle={&quot;edgeStyle&quot;:&quot;elbowEdgeStyle&quot;,&quot;elbow&quot;:&quot;vertical&quot;,&quot;curved&quot;:0,&quot;rounded&quot;:0};" parent="1" vertex="1">
          <mxGeometry x="1040" y="210" width="100" height="883" as="geometry" />
        </mxCell>
        <mxCell id="RWMHDLl-0bY4PuVm7Ei--53" value="" style="html=1;points=[];perimeter=orthogonalPerimeter;outlineConnect=0;targetShapes=umlLifeline;portConstraint=eastwest;newEdgeStyle={&quot;edgeStyle&quot;:&quot;elbowEdgeStyle&quot;,&quot;elbow&quot;:&quot;vertical&quot;,&quot;curved&quot;:0,&quot;rounded&quot;:0};" parent="RWMHDLl-0bY4PuVm7Ei--52" vertex="1">
          <mxGeometry x="45" y="810" width="10" height="17.5" as="geometry" />
        </mxCell>
        <mxCell id="RWMHDLl-0bY4PuVm7Ei--44" value="Exception" style="shape=umlLifeline;perimeter=lifelinePerimeter;whiteSpace=wrap;html=1;container=0;dropTarget=0;collapsible=0;recursiveResize=0;outlineConnect=0;portConstraint=eastwest;newEdgeStyle={&quot;edgeStyle&quot;:&quot;elbowEdgeStyle&quot;,&quot;elbow&quot;:&quot;vertical&quot;,&quot;curved&quot;:0,&quot;rounded&quot;:0};" parent="1" vertex="1">
          <mxGeometry x="930" y="210" width="100" height="882" as="geometry" />
        </mxCell>
        <mxCell id="RWMHDLl-0bY4PuVm7Ei--1" value="GoToHomeLecturer" style="shape=umlLifeline;perimeter=lifelinePerimeter;whiteSpace=wrap;html=1;container=0;dropTarget=0;collapsible=0;recursiveResize=0;outlineConnect=0;portConstraint=eastwest;newEdgeStyle={&quot;edgeStyle&quot;:&quot;elbowEdgeStyle&quot;,&quot;elbow&quot;:&quot;vertical&quot;,&quot;curved&quot;:0,&quot;rounded&quot;:0};" parent="1" vertex="1">
          <mxGeometry x="290" y="210" width="125" height="883" as="geometry" />
        </mxCell>
        <mxCell id="RWMHDLl-0bY4PuVm7Ei--2" value="doGet(request, response)" style="html=1;verticalAlign=bottom;startArrow=oval;endArrow=block;startSize=8;edgeStyle=elbowEdgeStyle;elbow=vertical;curved=0;rounded=0;" parent="RWMHDLl-0bY4PuVm7Ei--1" target="RWMHDLl-0bY4PuVm7Ei--3" edge="1">
          <mxGeometry relative="1" as="geometry">
            <mxPoint x="-100" y="70" as="sourcePoint" />
            <mxPoint x="45" y="70" as="targetPoint" />
          </mxGeometry>
        </mxCell>
        <mxCell id="RWMHDLl-0bY4PuVm7Ei--3" value="" style="html=1;points=[];perimeter=orthogonalPerimeter;outlineConnect=0;targetShapes=umlLifeline;portConstraint=eastwest;newEdgeStyle={&quot;edgeStyle&quot;:&quot;elbowEdgeStyle&quot;,&quot;elbow&quot;:&quot;vertical&quot;,&quot;curved&quot;:0,&quot;rounded&quot;:0};" parent="RWMHDLl-0bY4PuVm7Ei--1" vertex="1">
          <mxGeometry x="58" y="70" width="10" height="788" as="geometry" />
        </mxCell>
        <mxCell id="RWMHDLl-0bY4PuVm7Ei--4" value="Session" style="shape=umlLifeline;perimeter=lifelinePerimeter;whiteSpace=wrap;html=1;container=0;dropTarget=0;collapsible=0;recursiveResize=0;outlineConnect=0;portConstraint=eastwest;newEdgeStyle={&quot;edgeStyle&quot;:&quot;elbowEdgeStyle&quot;,&quot;elbow&quot;:&quot;vertical&quot;,&quot;curved&quot;:0,&quot;rounded&quot;:0};" parent="1" vertex="1">
          <mxGeometry x="460" y="210" width="100" height="887" as="geometry" />
        </mxCell>
        <mxCell id="RWMHDLl-0bY4PuVm7Ei--5" value="" style="html=1;points=[];perimeter=orthogonalPerimeter;outlineConnect=0;targetShapes=umlLifeline;portConstraint=eastwest;newEdgeStyle={&quot;edgeStyle&quot;:&quot;elbowEdgeStyle&quot;,&quot;elbow&quot;:&quot;vertical&quot;,&quot;curved&quot;:0,&quot;rounded&quot;:0};" parent="RWMHDLl-0bY4PuVm7Ei--4" vertex="1">
          <mxGeometry x="45" y="90" width="10" height="30" as="geometry" />
        </mxCell>
        <mxCell id="RWMHDLl-0bY4PuVm7Ei--6" value="getAttribute(&quot;user&quot;)" style="html=1;verticalAlign=bottom;endArrow=block;edgeStyle=elbowEdgeStyle;elbow=vertical;curved=0;rounded=0;" parent="RWMHDLl-0bY4PuVm7Ei--4" target="RWMHDLl-0bY4PuVm7Ei--5" edge="1">
          <mxGeometry relative="1" as="geometry">
            <mxPoint x="-102" y="90" as="sourcePoint" />
            <Array as="points">
              <mxPoint x="-40" y="90" />
              <mxPoint x="-60" y="100" />
              <mxPoint x="-40" y="90" />
            </Array>
            <mxPoint x="70" y="90" as="targetPoint" />
          </mxGeometry>
        </mxCell>
        <mxCell id="RWMHDLl-0bY4PuVm7Ei--7" value="user" style="html=1;verticalAlign=bottom;endArrow=open;dashed=1;endSize=8;edgeStyle=elbowEdgeStyle;elbow=vertical;curved=0;rounded=0;" parent="RWMHDLl-0bY4PuVm7Ei--4" source="RWMHDLl-0bY4PuVm7Ei--5" edge="1">
          <mxGeometry x="0.0031" relative="1" as="geometry">
            <mxPoint x="-102" y="120" as="targetPoint" />
            <Array as="points">
              <mxPoint x="33" y="120" />
              <mxPoint x="-22" y="120" />
            </Array>
            <mxPoint x="48" y="120" as="sourcePoint" />
            <mxPoint as="offset" />
          </mxGeometry>
        </mxCell>
        <mxCell id="RWMHDLl-0bY4PuVm7Ei--8" value="alt" style="shape=umlFrame;whiteSpace=wrap;html=1;pointerEvents=0;width=55;height=20;" parent="1" vertex="1">
          <mxGeometry x="270" y="410" width="1120" height="572" as="geometry" />
        </mxCell>
        <mxCell id="RWMHDLl-0bY4PuVm7Ei--9" value="Try" style="text;html=1;align=center;verticalAlign=middle;whiteSpace=wrap;rounded=0;fontStyle=3;fontColor=#FF8000;" parent="1" vertex="1">
          <mxGeometry x="260" y="420" width="150" height="20" as="geometry" />
        </mxCell>
        <mxCell id="RWMHDLl-0bY4PuVm7Ei--10" value="getId()" style="html=1;verticalAlign=bottom;endArrow=block;edgeStyle=elbowEdgeStyle;elbow=vertical;curved=0;rounded=0;" parent="1" source="RWMHDLl-0bY4PuVm7Ei--3" target="RWMHDLl-0bY4PuVm7Ei--19" edge="1">
          <mxGeometry relative="1" as="geometry">
            <mxPoint x="360" y="450" as="sourcePoint" />
            <Array as="points">
              <mxPoint x="422" y="450" />
              <mxPoint x="402" y="460" />
              <mxPoint x="422" y="450" />
            </Array>
            <mxPoint x="507" y="450" as="targetPoint" />
          </mxGeometry>
        </mxCell>
        <mxCell id="RWMHDLl-0bY4PuVm7Ei--11" value="HttpServletRequest" style="shape=umlLifeline;perimeter=lifelinePerimeter;whiteSpace=wrap;html=1;container=0;dropTarget=0;collapsible=0;recursiveResize=0;outlineConnect=0;portConstraint=eastwest;newEdgeStyle={&quot;edgeStyle&quot;:&quot;elbowEdgeStyle&quot;,&quot;elbow&quot;:&quot;vertical&quot;,&quot;curved&quot;:0,&quot;rounded&quot;:0};" parent="1" vertex="1">
          <mxGeometry x="580" y="210" width="120" height="883" as="geometry" />
        </mxCell>
        <mxCell id="RWMHDLl-0bY4PuVm7Ei--12" value="" style="html=1;points=[];perimeter=orthogonalPerimeter;outlineConnect=0;targetShapes=umlLifeline;portConstraint=eastwest;newEdgeStyle={&quot;edgeStyle&quot;:&quot;elbowEdgeStyle&quot;,&quot;elbow&quot;:&quot;vertical&quot;,&quot;curved&quot;:0,&quot;rounded&quot;:0};" parent="RWMHDLl-0bY4PuVm7Ei--11" vertex="1">
          <mxGeometry x="55" y="150" width="10" height="30" as="geometry" />
        </mxCell>
        <mxCell id="RWMHDLl-0bY4PuVm7Ei--27" value="" style="html=1;points=[];perimeter=orthogonalPerimeter;outlineConnect=0;targetShapes=umlLifeline;portConstraint=eastwest;newEdgeStyle={&quot;edgeStyle&quot;:&quot;elbowEdgeStyle&quot;,&quot;elbow&quot;:&quot;vertical&quot;,&quot;curved&quot;:0,&quot;rounded&quot;:0};" parent="RWMHDLl-0bY4PuVm7Ei--11" vertex="1">
          <mxGeometry x="55" y="390" width="10" height="30" as="geometry" />
        </mxCell>
        <mxCell id="RWMHDLl-0bY4PuVm7Ei--15" value="User" style="shape=umlLifeline;perimeter=lifelinePerimeter;whiteSpace=wrap;html=1;container=0;dropTarget=0;collapsible=0;recursiveResize=0;outlineConnect=0;portConstraint=eastwest;newEdgeStyle={&quot;edgeStyle&quot;:&quot;elbowEdgeStyle&quot;,&quot;elbow&quot;:&quot;vertical&quot;,&quot;curved&quot;:0,&quot;rounded&quot;:0};" parent="1" vertex="1">
          <mxGeometry x="710" y="210" width="100" height="883.5" as="geometry" />
        </mxCell>
        <mxCell id="RWMHDLl-0bY4PuVm7Ei--19" value="" style="html=1;points=[];perimeter=orthogonalPerimeter;outlineConnect=0;targetShapes=umlLifeline;portConstraint=eastwest;newEdgeStyle={&quot;edgeStyle&quot;:&quot;elbowEdgeStyle&quot;,&quot;elbow&quot;:&quot;vertical&quot;,&quot;curved&quot;:0,&quot;rounded&quot;:0};" parent="RWMHDLl-0bY4PuVm7Ei--15" vertex="1">
          <mxGeometry x="47" y="240" width="10" height="30" as="geometry" />
        </mxCell>
        <mxCell id="RWMHDLl-0bY4PuVm7Ei--21" value="findAllCoursesByLecturer(idUser)" style="html=1;verticalAlign=bottom;endArrow=block;edgeStyle=elbowEdgeStyle;elbow=vertical;curved=0;rounded=0;" parent="RWMHDLl-0bY4PuVm7Ei--15" target="RWMHDLl-0bY4PuVm7Ei--22" edge="1">
          <mxGeometry relative="1" as="geometry">
            <mxPoint x="-352" y="289" as="sourcePoint" />
            <Array as="points">
              <mxPoint x="-150" y="300" />
              <mxPoint x="-288" y="289" />
              <mxPoint x="-308" y="299" />
              <mxPoint x="-288" y="289" />
            </Array>
            <mxPoint x="-203" y="289" as="targetPoint" />
          </mxGeometry>
        </mxCell>
        <mxCell id="RWMHDLl-0bY4PuVm7Ei--23" value="courses taught by lecturer" style="html=1;verticalAlign=bottom;endArrow=open;dashed=1;endSize=8;edgeStyle=elbowEdgeStyle;elbow=vertical;curved=0;rounded=0;" parent="RWMHDLl-0bY4PuVm7Ei--15" source="RWMHDLl-0bY4PuVm7Ei--22" edge="1">
          <mxGeometry x="0.0031" relative="1" as="geometry">
            <mxPoint x="-352" y="330" as="targetPoint" />
            <Array as="points">
              <mxPoint x="-160" y="330" />
              <mxPoint x="45" y="319" />
              <mxPoint x="-10" y="319" />
            </Array>
            <mxPoint x="60" y="319" as="sourcePoint" />
            <mxPoint as="offset" />
          </mxGeometry>
        </mxCell>
        <mxCell id="RWMHDLl-0bY4PuVm7Ei--38" value="" style="html=1;points=[];perimeter=orthogonalPerimeter;outlineConnect=0;targetShapes=umlLifeline;portConstraint=eastwest;newEdgeStyle={&quot;edgeStyle&quot;:&quot;elbowEdgeStyle&quot;,&quot;elbow&quot;:&quot;vertical&quot;,&quot;curved&quot;:0,&quot;rounded&quot;:0};" parent="RWMHDLl-0bY4PuVm7Ei--15" vertex="1">
          <mxGeometry x="-75" y="599.5" width="10" height="30" as="geometry" />
        </mxCell>
        <mxCell id="RWMHDLl-0bY4PuVm7Ei--39" value="getParameter(&quot;courseid&quot;)" style="html=1;verticalAlign=bottom;endArrow=block;edgeStyle=elbowEdgeStyle;elbow=vertical;curved=0;rounded=0;" parent="RWMHDLl-0bY4PuVm7Ei--15" target="RWMHDLl-0bY4PuVm7Ei--38" edge="1">
          <mxGeometry relative="1" as="geometry">
            <mxPoint x="-352" y="599.5" as="sourcePoint" />
            <Array as="points">
              <mxPoint x="-288" y="599.5" />
              <mxPoint x="-308" y="609.5" />
              <mxPoint x="-288" y="599.5" />
            </Array>
            <mxPoint x="-203" y="599.5" as="targetPoint" />
          </mxGeometry>
        </mxCell>
        <mxCell id="RWMHDLl-0bY4PuVm7Ei--40" value="idCourse" style="html=1;verticalAlign=bottom;endArrow=open;dashed=1;endSize=8;edgeStyle=elbowEdgeStyle;elbow=vertical;curved=0;rounded=0;" parent="RWMHDLl-0bY4PuVm7Ei--15" source="RWMHDLl-0bY4PuVm7Ei--38" edge="1">
          <mxGeometry x="0.0031" relative="1" as="geometry">
            <mxPoint x="-352" y="629.5" as="targetPoint" />
            <Array as="points">
              <mxPoint x="-95" y="629.5" />
              <mxPoint x="-150" y="629.5" />
            </Array>
            <mxPoint x="-83" y="629.5" as="sourcePoint" />
            <mxPoint as="offset" />
          </mxGeometry>
        </mxCell>
        <mxCell id="RWMHDLl-0bY4PuVm7Ei--36" value="" style="line;strokeWidth=3;fillColor=none;align=left;verticalAlign=middle;spacingTop=-1;spacingLeft=3;spacingRight=3;rotatable=0;labelPosition=right;points=[];portConstraint=eastwest;strokeColor=#80FF00;dashed=1;fontStyle=1" parent="RWMHDLl-0bY4PuVm7Ei--15" vertex="1">
          <mxGeometry x="-460" y="530" width="1160" height="8" as="geometry" />
        </mxCell>
        <mxCell id="RWMHDLl-0bY4PuVm7Ei--37" value="Catch(NumberFormatExcpetion | NullPointerExcpetion)" style="text;html=1;align=center;verticalAlign=middle;whiteSpace=wrap;rounded=0;fontStyle=3;fontColor=#FF8000;" parent="RWMHDLl-0bY4PuVm7Ei--15" vertex="1">
          <mxGeometry x="-410" y="549.5" width="150" height="20" as="geometry" />
        </mxCell>
        <mxCell id="RWMHDLl-0bY4PuVm7Ei--41" value="" style="line;strokeWidth=3;align=left;verticalAlign=middle;spacingTop=-1;spacingLeft=3;spacingRight=3;rotatable=0;labelPosition=right;points=[];portConstraint=eastwest;dashed=1;strokeColor=#80FF00;" parent="RWMHDLl-0bY4PuVm7Ei--15" vertex="1">
          <mxGeometry x="-460" y="659.5" width="1160" height="8" as="geometry" />
        </mxCell>
        <mxCell id="RWMHDLl-0bY4PuVm7Ei--42" value="Catch(SQLException | CourseDAOException)" style="text;html=1;align=center;verticalAlign=middle;whiteSpace=wrap;rounded=0;fontStyle=3;fontColor=#FF8000;" parent="RWMHDLl-0bY4PuVm7Ei--15" vertex="1">
          <mxGeometry x="-410" y="679" width="150" height="20" as="geometry" />
        </mxCell>
        <mxCell id="RWMHDLl-0bY4PuVm7Ei--45" value="" style="html=1;points=[];perimeter=orthogonalPerimeter;outlineConnect=0;targetShapes=umlLifeline;portConstraint=eastwest;newEdgeStyle={&quot;edgeStyle&quot;:&quot;elbowEdgeStyle&quot;,&quot;elbow&quot;:&quot;vertical&quot;,&quot;curved&quot;:0,&quot;rounded&quot;:0};" parent="RWMHDLl-0bY4PuVm7Ei--15" vertex="1">
          <mxGeometry x="265" y="719.5" width="10" height="30" as="geometry" />
        </mxCell>
        <mxCell id="RWMHDLl-0bY4PuVm7Ei--46" value="getMessage()" style="html=1;verticalAlign=bottom;endArrow=block;edgeStyle=elbowEdgeStyle;elbow=vertical;curved=0;rounded=0;" parent="RWMHDLl-0bY4PuVm7Ei--15" target="RWMHDLl-0bY4PuVm7Ei--45" edge="1">
          <mxGeometry relative="1" as="geometry">
            <mxPoint x="-352" y="719.4999999999998" as="sourcePoint" />
            <Array as="points">
              <mxPoint x="110" y="719.5" />
              <mxPoint x="80" y="729.5" />
              <mxPoint x="-140" y="740.5" />
              <mxPoint x="-278" y="729.5" />
              <mxPoint x="-298" y="739.5" />
              <mxPoint x="-278" y="729.5" />
            </Array>
            <mxPoint x="165" y="740.5" as="targetPoint" />
          </mxGeometry>
        </mxCell>
        <mxCell id="RWMHDLl-0bY4PuVm7Ei--50" value="error message" style="html=1;verticalAlign=bottom;endArrow=open;dashed=1;endSize=8;edgeStyle=elbowEdgeStyle;elbow=vertical;curved=0;rounded=0;" parent="RWMHDLl-0bY4PuVm7Ei--15" source="RWMHDLl-0bY4PuVm7Ei--45" edge="1">
          <mxGeometry x="0.0031" relative="1" as="geometry">
            <mxPoint x="-352" y="749.4999999999998" as="targetPoint" />
            <Array as="points">
              <mxPoint x="-48" y="749.5" />
              <mxPoint x="157" y="738.5" />
              <mxPoint x="102" y="738.5" />
            </Array>
            <mxPoint x="267" y="749.5" as="sourcePoint" />
            <mxPoint as="offset" />
          </mxGeometry>
        </mxCell>
        <mxCell id="RWMHDLl-0bY4PuVm7Ei--54" value="setVariable(&quot;calls&quot;, calls) ; setVariable(&quot;courses&quot;, courses) ; setVariable(&quot;errorMessage&quot;, error) ; &lt;br&gt;setVariable(&quot;firstTime&quot;, firstTime) ; setVariable(&quot;selectedCourse&quot;, courseId)" style="html=1;verticalAlign=bottom;endArrow=block;edgeStyle=elbowEdgeStyle;elbow=vertical;curved=0;rounded=0;" parent="RWMHDLl-0bY4PuVm7Ei--15" target="RWMHDLl-0bY4PuVm7Ei--53" edge="1">
          <mxGeometry relative="1" as="geometry">
            <mxPoint x="-352" y="799.4999999999998" as="sourcePoint" />
            <Array as="points">
              <mxPoint x="310" y="810" />
              <mxPoint x="70" y="799.5" />
              <mxPoint x="112" y="789.5" />
              <mxPoint x="82" y="799.5" />
              <mxPoint x="-138" y="810.5" />
              <mxPoint x="-276" y="799.5" />
              <mxPoint x="-296" y="809.5" />
              <mxPoint x="-276" y="799.5" />
            </Array>
            <mxPoint x="267" y="789.5" as="targetPoint" />
          </mxGeometry>
        </mxCell>
        <mxCell id="RWMHDLl-0bY4PuVm7Ei--16" value="getAttribute(&quot;errorMessage&quot;)" style="html=1;verticalAlign=bottom;endArrow=block;edgeStyle=elbowEdgeStyle;elbow=vertical;curved=0;rounded=0;" parent="1" target="RWMHDLl-0bY4PuVm7Ei--12" edge="1">
          <mxGeometry relative="1" as="geometry">
            <mxPoint x="350" y="360" as="sourcePoint" />
            <Array as="points">
              <mxPoint x="422" y="360" />
              <mxPoint x="402" y="370" />
              <mxPoint x="422" y="360" />
            </Array>
            <mxPoint x="507" y="360" as="targetPoint" />
          </mxGeometry>
        </mxCell>
        <mxCell id="RWMHDLl-0bY4PuVm7Ei--17" value="error" style="html=1;verticalAlign=bottom;endArrow=open;dashed=1;endSize=8;edgeStyle=elbowEdgeStyle;elbow=vertical;curved=0;rounded=0;" parent="1" source="RWMHDLl-0bY4PuVm7Ei--12" target="RWMHDLl-0bY4PuVm7Ei--3" edge="1">
          <mxGeometry x="0.0031" relative="1" as="geometry">
            <mxPoint x="480" y="390" as="targetPoint" />
            <Array as="points">
              <mxPoint x="615" y="390" />
              <mxPoint x="560" y="390" />
            </Array>
            <mxPoint x="627" y="390" as="sourcePoint" />
            <mxPoint as="offset" />
          </mxGeometry>
        </mxCell>
        <mxCell id="RWMHDLl-0bY4PuVm7Ei--18" value="CourseDAO" style="shape=umlLifeline;perimeter=lifelinePerimeter;whiteSpace=wrap;html=1;container=0;dropTarget=0;collapsible=0;recursiveResize=0;outlineConnect=0;portConstraint=eastwest;newEdgeStyle={&quot;edgeStyle&quot;:&quot;elbowEdgeStyle&quot;,&quot;elbow&quot;:&quot;vertical&quot;,&quot;curved&quot;:0,&quot;rounded&quot;:0};" parent="1" vertex="1">
          <mxGeometry x="820" y="210" width="100" height="880" as="geometry" />
        </mxCell>
        <mxCell id="RWMHDLl-0bY4PuVm7Ei--22" value="" style="html=1;points=[];perimeter=orthogonalPerimeter;outlineConnect=0;targetShapes=umlLifeline;portConstraint=eastwest;newEdgeStyle={&quot;edgeStyle&quot;:&quot;elbowEdgeStyle&quot;,&quot;elbow&quot;:&quot;vertical&quot;,&quot;curved&quot;:0,&quot;rounded&quot;:0};" parent="RWMHDLl-0bY4PuVm7Ei--18" vertex="1">
          <mxGeometry x="45" y="300" width="10" height="30" as="geometry" />
        </mxCell>
        <mxCell id="RWMHDLl-0bY4PuVm7Ei--31" value="" style="html=1;points=[];perimeter=orthogonalPerimeter;outlineConnect=0;targetShapes=umlLifeline;portConstraint=eastwest;newEdgeStyle={&quot;edgeStyle&quot;:&quot;elbowEdgeStyle&quot;,&quot;elbow&quot;:&quot;vertical&quot;,&quot;curved&quot;:0,&quot;rounded&quot;:0};" parent="RWMHDLl-0bY4PuVm7Ei--18" vertex="1">
          <mxGeometry x="45" y="450.5" width="10" height="20" as="geometry" />
        </mxCell>
        <mxCell id="RWMHDLl-0bY4PuVm7Ei--20" value="idUser" style="html=1;verticalAlign=bottom;endArrow=open;dashed=1;endSize=8;edgeStyle=elbowEdgeStyle;elbow=vertical;curved=0;rounded=0;" parent="1" source="RWMHDLl-0bY4PuVm7Ei--19" target="RWMHDLl-0bY4PuVm7Ei--3" edge="1">
          <mxGeometry x="0.0031" relative="1" as="geometry">
            <mxPoint x="620" y="480" as="targetPoint" />
            <Array as="points">
              <mxPoint x="755" y="480" />
              <mxPoint x="700" y="480" />
            </Array>
            <mxPoint x="770" y="480" as="sourcePoint" />
            <mxPoint as="offset" />
          </mxGeometry>
        </mxCell>
        <mxCell id="RWMHDLl-0bY4PuVm7Ei--28" value="(Integer) getParameter(&quot;courseid&quot;) &lt;br&gt;&lt;b&gt;&lt;font color=&quot;#ff8000&quot;&gt;?: [THROW NumberFormatExcpetion &lt;br&gt;| NullPointerExcpetion]&lt;/font&gt;&lt;/b&gt;" style="html=1;verticalAlign=bottom;endArrow=block;edgeStyle=elbowEdgeStyle;elbow=vertical;curved=0;rounded=0;" parent="1" target="RWMHDLl-0bY4PuVm7Ei--27" edge="1">
          <mxGeometry relative="1" as="geometry">
            <mxPoint x="358" y="600" as="sourcePoint" />
            <Array as="points">
              <mxPoint x="422" y="600" />
              <mxPoint x="402" y="610" />
              <mxPoint x="422" y="600" />
            </Array>
            <mxPoint x="507" y="600" as="targetPoint" />
          </mxGeometry>
        </mxCell>
        <mxCell id="RWMHDLl-0bY4PuVm7Ei--29" value="idCourse" style="html=1;verticalAlign=bottom;endArrow=open;dashed=1;endSize=8;edgeStyle=elbowEdgeStyle;elbow=vertical;curved=0;rounded=0;" parent="1" source="RWMHDLl-0bY4PuVm7Ei--27" edge="1">
          <mxGeometry x="0.0031" relative="1" as="geometry">
            <mxPoint x="358" y="630" as="targetPoint" />
            <Array as="points">
              <mxPoint x="615" y="630" />
              <mxPoint x="560" y="630" />
            </Array>
            <mxPoint x="627" y="630" as="sourcePoint" />
            <mxPoint as="offset" />
          </mxGeometry>
        </mxCell>
        <mxCell id="RWMHDLl-0bY4PuVm7Ei--32" value="checkIfCourseIsTaughtByLecturer(idCourse, idUser) &lt;b&gt;&lt;font color=&quot;#ff8000&quot;&gt;?: [THROW CourseDAOException]&lt;/font&gt;&lt;/b&gt;" style="html=1;verticalAlign=bottom;endArrow=block;edgeStyle=elbowEdgeStyle;elbow=vertical;curved=0;rounded=0;" parent="1" target="RWMHDLl-0bY4PuVm7Ei--31" edge="1">
          <mxGeometry relative="1" as="geometry">
            <mxPoint x="358" y="661.5" as="sourcePoint" />
            <Array as="points">
              <mxPoint x="562" y="661.5" />
              <mxPoint x="424" y="650.5" />
              <mxPoint x="404" y="660.5" />
              <mxPoint x="424" y="650.5" />
            </Array>
            <mxPoint x="867" y="661.5" as="targetPoint" />
          </mxGeometry>
        </mxCell>
        <mxCell id="RWMHDLl-0bY4PuVm7Ei--51" value="calls" style="html=1;verticalAlign=bottom;endArrow=open;dashed=1;endSize=8;edgeStyle=elbowEdgeStyle;elbow=vertical;curved=0;rounded=0;" parent="1" source="RWMHDLl-0bY4PuVm7Ei--57" target="RWMHDLl-0bY4PuVm7Ei--3" edge="1">
          <mxGeometry x="0.0031" relative="1" as="geometry">
            <mxPoint x="690" y="720" as="targetPoint" />
            <Array as="points">
              <mxPoint x="882" y="720" />
              <mxPoint x="1087" y="709" />
              <mxPoint x="1032" y="709" />
            </Array>
            <mxPoint x="1197" y="720" as="sourcePoint" />
            <mxPoint as="offset" />
          </mxGeometry>
        </mxCell>
        <mxCell id="RWMHDLl-0bY4PuVm7Ei--55" value="GraduationCallDAO" style="shape=umlLifeline;perimeter=lifelinePerimeter;whiteSpace=wrap;html=1;container=0;dropTarget=0;collapsible=0;recursiveResize=0;outlineConnect=0;portConstraint=eastwest;newEdgeStyle={&quot;edgeStyle&quot;:&quot;elbowEdgeStyle&quot;,&quot;elbow&quot;:&quot;vertical&quot;,&quot;curved&quot;:0,&quot;rounded&quot;:0};" parent="1" vertex="1">
          <mxGeometry x="1150" y="210" width="110" height="882" as="geometry" />
        </mxCell>
        <mxCell id="RWMHDLl-0bY4PuVm7Ei--57" value="" style="html=1;points=[];perimeter=orthogonalPerimeter;outlineConnect=0;targetShapes=umlLifeline;portConstraint=eastwest;newEdgeStyle={&quot;edgeStyle&quot;:&quot;elbowEdgeStyle&quot;,&quot;elbow&quot;:&quot;vertical&quot;,&quot;curved&quot;:0,&quot;rounded&quot;:0};" parent="RWMHDLl-0bY4PuVm7Ei--55" vertex="1">
          <mxGeometry x="50" y="490" width="10" height="20" as="geometry" />
        </mxCell>
        <mxCell id="RWMHDLl-0bY4PuVm7Ei--58" value="findAllDegreeCallByCourseId(idCourse)" style="html=1;verticalAlign=bottom;endArrow=block;edgeStyle=elbowEdgeStyle;elbow=vertical;curved=0;rounded=0;" parent="1" target="RWMHDLl-0bY4PuVm7Ei--57" edge="1">
          <mxGeometry relative="1" as="geometry">
            <mxPoint x="360" y="690" as="sourcePoint" />
            <Array as="points">
              <mxPoint x="940" y="700" />
              <mxPoint x="564" y="690" />
              <mxPoint x="426" y="679" />
              <mxPoint x="406" y="689" />
              <mxPoint x="426" y="679" />
            </Array>
            <mxPoint x="867" y="690.5" as="targetPoint" />
          </mxGeometry>
        </mxCell>
        <mxCell id="RWMHDLl-0bY4PuVm7Ei--59" value="process(WebContext, &quot;HomeLecturer.html&quot;)" style="html=1;verticalAlign=bottom;endArrow=block;edgeStyle=elbowEdgeStyle;elbow=vertical;curved=0;rounded=0;" parent="1" source="RWMHDLl-0bY4PuVm7Ei--3" target="RWMHDLl-0bY4PuVm7Ei--61" edge="1">
          <mxGeometry x="0.0011" relative="1" as="geometry">
            <mxPoint x="360" y="1045.9999999999998" as="sourcePoint" />
            <Array as="points">
              <mxPoint x="1260" y="1050" />
              <mxPoint x="782" y="1046" />
              <mxPoint x="824" y="1036" />
              <mxPoint x="794" y="1046" />
              <mxPoint x="574" y="1057" />
              <mxPoint x="436" y="1046" />
              <mxPoint x="416" y="1056" />
              <mxPoint x="436" y="1046" />
            </Array>
            <mxPoint x="1087" y="1046.5" as="targetPoint" />
            <mxPoint as="offset" />
          </mxGeometry>
        </mxCell>
        <mxCell id="RWMHDLl-0bY4PuVm7Ei--60" value="TemplateEngine" style="shape=umlLifeline;perimeter=lifelinePerimeter;whiteSpace=wrap;html=1;container=0;dropTarget=0;collapsible=0;recursiveResize=0;outlineConnect=0;portConstraint=eastwest;newEdgeStyle={&quot;edgeStyle&quot;:&quot;elbowEdgeStyle&quot;,&quot;elbow&quot;:&quot;vertical&quot;,&quot;curved&quot;:0,&quot;rounded&quot;:0};" parent="1" vertex="1">
          <mxGeometry x="1270" y="210" width="100" height="882" as="geometry" />
        </mxCell>
        <mxCell id="RWMHDLl-0bY4PuVm7Ei--61" value="" style="html=1;points=[];perimeter=orthogonalPerimeter;outlineConnect=0;targetShapes=umlLifeline;portConstraint=eastwest;newEdgeStyle={&quot;edgeStyle&quot;:&quot;elbowEdgeStyle&quot;,&quot;elbow&quot;:&quot;vertical&quot;,&quot;curved&quot;:0,&quot;rounded&quot;:0};" parent="RWMHDLl-0bY4PuVm7Ei--60" vertex="1">
          <mxGeometry x="45" y="838" width="10" height="20" as="geometry" />
        </mxCell>
      </root>
    </mxGraphModel>
  </diagram>
</mxfile>
